<svg width="201" height="24" viewBox="0 0 201 24" fill="none" xmlns="http://www.w3.org/2000/svg">
<path d="M9.95642 6.32488L41.6864 0.0294232C42.6856 -0.193571 43.4711 0.895205 42.9642 1.80055L31.5364 22.988C31.2561 23.4883 30.7342 23.7968 30.1693 23.7968H22.1497L31.5364 7.47168C31.8382 6.942 31.6591 6.26472 31.1364 5.9591C30.6139 5.65322 29.9452 5.83477 29.6436 6.36445L20.0786 22.9853C19.7989 23.4869 19.2762 23.7968 18.7099 23.7968H10.8698L18.7703 9.92969C19.0722 9.40001 18.8933 8.72274 18.3706 8.41713C17.8478 8.11125 17.1794 8.2928 16.8778 8.82248L8.80348 22.9979C8.52166 23.4925 8.00295 23.7968 7.44172 23.7968H0L9.95642 6.32488Z" fill="#47D19D"/>
<path d="M60.4741 10.0005V23.5211H57.9473C57.2468 23.5211 56.6799 22.954 56.6799 22.2545V7.40747C56.6799 6.708 57.2468 6.14062 57.9473 6.14062H62.3564L65.7093 19.977L68.9366 6.14062H73.3965C74.097 6.14062 74.6639 6.708 74.6639 7.40747V22.2545C74.6639 22.954 74.097 23.5211 73.3965 23.5211H70.8698V10.0005L68.0248 21.746C67.7708 22.7877 66.8404 23.5211 65.7682 23.5211H65.6211C64.5516 23.5211 63.6211 22.7917 63.3671 21.754L60.4741 10.0005Z" fill="#F2F2F2"/>
<path d="M87.4018 16.0446V20.5355H97.1611V22.2545C97.1611 22.954 96.5943 23.5211 95.8938 23.5211H84.8777C84.1772 23.5211 83.6104 22.954 83.6104 22.2545V7.40747C83.6104 6.708 84.1772 6.14062 84.8777 6.14062H95.6825C96.3831 6.14062 96.9499 6.708 96.9499 7.40747V9.12645H87.4018V13.0591H96.2521V16.0446H87.4018Z" fill="#F2F2F2"/>
<path d="M109.399 16.6272V23.5211H106.872C106.175 23.5211 105.608 22.954 105.608 22.2545V7.40747C105.608 6.708 106.175 6.14062 106.872 6.14062H115.514C117.081 6.14062 118.276 6.53714 119.1 7.33019C120.03 8.2203 120.495 9.39356 120.495 10.85C120.495 12.9537 119.445 14.3861 117.346 15.1465C118.533 15.5834 119.255 16.1256 119.514 16.773C119.704 17.2422 119.84 18.804 119.926 21.4577C120.188 23.1198 120.856 23.2534 120.856 23.2906V23.5211H116.966C116.771 23.5211 116.586 23.4179 116.509 23.2396C116.225 22.5914 116.081 21.7064 116.081 20.5839C116.081 20.2604 116.092 19.8639 116.108 19.3946V18.6906C116.108 17.3149 115.324 16.6272 113.76 16.6272H109.399ZM109.399 13.6417H113.993C114.955 13.6417 115.626 13.496 116.006 13.2045C116.469 12.8323 116.701 12.2174 116.701 11.3599C116.701 10.5345 116.469 9.94383 116.006 9.58768C115.61 9.28019 114.939 9.12645 113.993 9.12645H109.399V13.6417Z" fill="#F2F2F2"/>
<path d="M130.885 6.14062C131.933 6.14062 132.781 6.98981 132.781 8.03714V21.6248C132.781 22.6722 131.933 23.5211 130.885 23.5211C129.837 23.5211 128.989 22.6722 128.989 21.6248V8.03714C128.989 6.98981 129.837 6.14062 130.885 6.14062Z" fill="#F2F2F2"/>
<path d="M149.644 9.12645V22.2545C149.644 22.954 149.077 23.5211 148.377 23.5211H147.117C146.417 23.5211 145.85 22.954 145.85 22.2545V9.12645H140.227V7.40747C140.227 6.708 140.794 6.14062 141.492 6.14062H153.743C154.444 6.14062 155.01 6.708 155.01 7.40747V9.12645H149.644Z" fill="#F2F2F2"/>
<path d="M173.219 20.0256H166.304L165.064 23.5211H163.026C162.141 23.5211 161.529 22.6361 161.842 21.8077L167.438 6.9604C167.625 6.46735 168.099 6.14062 168.625 6.14062H171.072C171.601 6.14062 172.077 6.47163 172.259 6.96976L177.724 21.8168C178.029 22.6438 177.417 23.5211 176.537 23.5211H174.43L173.219 20.0256ZM172.187 17.0398L169.786 10.243L167.361 17.0398H172.187Z" fill="#F2F2F2"/>
<path d="M199.227 10.1277C199.369 10.8175 198.783 11.3988 198.078 11.3988H195.797C195.676 9.63493 194.388 8.75311 191.928 8.75311C190.947 8.75311 190.163 8.9392 189.58 9.31139C189.011 9.68359 188.727 10.1852 188.727 10.8165C188.727 11.4312 188.968 11.8924 189.449 12.1999C189.93 12.5074 190.861 12.7825 192.235 13.0253L195.126 13.5352C196.829 13.8427 198.067 14.3684 198.842 15.1127C199.615 15.8574 200.003 16.9093 200.003 18.2686C200.003 20.1296 199.246 21.5456 197.733 22.5165C196.425 23.3742 194.663 23.8031 192.444 23.8031C189.914 23.8031 187.987 23.2528 186.663 22.1526C185.832 21.4625 185.273 20.578 184.987 19.4994C184.799 18.7938 185.396 18.1713 186.126 18.1713H188.471C188.607 20.0162 189.992 20.9387 192.623 20.9387C193.794 20.9387 194.706 20.7446 195.358 20.3561C196.029 19.9515 196.364 19.4012 196.364 18.7055C196.364 18.0258 196.099 17.4999 195.564 17.1277C195.048 16.7555 194.155 16.4561 192.882 16.2296L190.302 15.7684C188.428 15.4446 187.086 14.9349 186.275 14.2389C185.484 13.5269 185.091 12.5074 185.091 11.1804C185.091 9.38413 185.786 8.02477 187.179 7.10231C188.382 6.29322 190.019 5.88867 192.083 5.88867C194.575 5.88867 196.452 6.42263 197.706 7.49081C198.497 8.17584 199.005 9.05472 199.227 10.1277Z" fill="#F2F2F2"/>
</svg>
